/vscmnt/brussel_pixiu_data/_data_brussel/112/vsc11236/PredSimResults/SUBJ09opt3D/trackIG/worker_15.mot
version=1
nRows=4
nColumns=50
inDegrees=yes
endheader
                time	         pelvis_tilt	         pelvis_list	     pelvis_rotation	           pelvis_tx	           pelvis_ty	           pelvis_tz	       hip_flexion_r	     hip_adduction_r	      hip_rotation_r	        knee_angle_r	       ankle_angle_r	         mtp_angle_r	       hip_flexion_l	     hip_adduction_l	      hip_rotation_l	        knee_angle_l	       ankle_angle_l	         mtp_angle_l	    lumbar_extension	      lumbar_bending	     lumbar_rotation	 ercspn_r/activation	 intobl_r/activation	 extobl_r/activation	    abd_r/activation	    add_r/activation	hamstrings_r/activation	bifemsh_r/activation	glut_max_r/activation	iliopsoas_r/activation	rect_fem_r/activation	  vasti_r/activation	gastroc_r/activation	 soleus_r/activation	tib_ant_r/activation	 ercspn_l/activation	 intobl_l/activation	 extobl_l/activation	    abd_l/activation	    add_l/activation	hamstrings_l/activation	bifemsh_l/activation	glut_max_l/activation	iliopsoas_l/activation	rect_fem_l/activation	  vasti_l/activation	gastroc_l/activation	 soleus_l/activation	tib_ant_l/activation	
          0.44907088	         -7.85707540	          4.65903497	         -6.49780730	          0.89814175	          0.97280035	         -0.00149515	        -14.53042632	         -5.98013303	         -3.36781762	        -12.13378020	         -1.28982565	         41.50242838	         37.66951541	          2.23975147	         -4.80557050	        -12.71338818	         11.60108168	          0.29135221	        -11.38210170	         -4.45728863	          8.11906474	          0.05007459	          0.00999999	          0.00999999	          0.01519645	          0.16789351	          0.02008648	          0.21369784	          0.01519645	          0.84123568	          0.01519645	          0.01682857	          0.30378199	          0.12763588	          0.00999999	          0.11578384	          0.08824301	          0.02182411	          0.11867983	          0.53431095	          0.21424958	          0.45895011	          0.05564820	          0.14702670	          0.01028051	          0.00999999	          0.02502489	          0.01149689	          0.53537383	
          0.45805229	         -7.80497348	          4.59722693	         -6.44451012	          0.91994995	          0.96990838	         -0.00191820	        -14.41582938	         -6.10192572	         -3.74105438	        -14.63180650	         -2.47184325	         42.57793894	         37.43979816	          2.27031778	         -5.30313725	        -14.01657592	         10.87661590	          0.32628055	        -10.96253986	         -4.55294680	          8.19185075	          0.04355485	          0.01321786	          0.00999999	          0.01321786	          0.18428101	          0.01747121	          0.18587427	          0.01321786	          0.84617657	          0.01321786	          0.01463748	          0.26422941	          0.11101762	          0.00999999	          0.10070872	          0.07675372	          0.01898260	          0.10322766	          0.50328405	          0.18635417	          0.39919456	          0.28420201	          0.12788375	          0.00999999	          0.05566829	          0.02176664	          0.00999999	          0.53483300	
          0.46703371	         -7.73864267	          4.56835384	         -6.36404628	          0.94174334	          0.96701024	         -0.00240232	        -13.92203556	         -6.29658631	         -4.09824544	        -17.84276898	         -3.55955588	         43.06547693	         37.14881249	          2.33366061	         -5.68241575	        -15.78285407	         10.22279918	          0.22586055	        -10.55449531	         -4.68515669	          8.21420550	          0.07070884	          0.01149689	          0.00999999	          0.01149689	          0.16028753	          0.01519645	          0.16167334	          0.01149689	          0.76260031	          0.01149689	          0.01273168	          0.22982660	          0.09656307	          0.00999999	          0.08759639	          0.06676035	          0.01651105	          0.22408136	          0.43775619	          0.16209076	          0.34721921	          0.41550363	          0.11123321	          0.00999999	          0.14278952	          0.01893261	          0.01556153	          0.62325597	
          0.47601513	         -7.66305095	          4.59019145	         -6.25671522	          0.96324213	          0.96437648	         -0.00295435	        -13.01346735	         -6.58886691	         -4.43141888	        -21.72784512	         -4.76480712	         42.96885732	         36.80484614	          2.46201435	         -5.97100357	        -17.49950725	          9.77718142	          0.20795681	        -10.18873585	         -4.87522322	          8.18129827	          0.10199809	          0.00999999	          0.01149689	          0.00999999	          0.13941800	          0.01321786	          0.16616985	          0.00999999	          0.66330934	          0.00999999	          0.01107400	          0.19990305	          0.08399050	          0.00999999	          0.07619129	          0.05806811	          0.01436131	          0.28281811	          0.38076010	          0.14098645	          0.30201109	          0.50355607	          0.09675059	          0.00999999	          0.21265666	          0.01646757	          0.01353541	          0.71773072	
